STARTFONT 2.1
FONT -Adobe-Utopia-Bold-R-Normal--17-120-100-100-P-93-ISO8859-2
SIZE 12 100 100
FONTBOUNDINGBOX 24 19 -3 -4
STARTPROPERTIES 29
FOUNDRY "Adobe"
FAMILY_NAME "Utopia"
WEIGHT_NAME "Bold"
SLANT "R"
SETWIDTH_NAME "Normal"
ADD_STYLE_NAME ""
PIXEL_SIZE 17
POINT_SIZE 120
RESOLUTION_X 100
RESOLUTION_Y 100
SPACING "P"
AVERAGE_WIDTH 93
CHARSET_REGISTRY "ISO8859"
CHARSET_ENCODING "2"
CAP_HEIGHT 12
X_HEIGHT 8
RELATIVE_SETWIDTH 50
RELATIVE_WEIGHT 70
WEIGHT 218
FACE_NAME "Utopia Bold"
COPYRIGHT "Copyright (c) 1989, 1991 Adobe Systems Incorporated.  All Rights Reserved., Copyright 1996 Cub Soft"
NOTICE "Utopia is a registered trademark of Adobe Systems Incorporated."
DESTINATION 0
FONT_ASCENT 15
FONT_DESCENT 4
DEFAULT_CHAR 32
_ADOBE_PSFONT "Utopia-Bold"
_ADOBE_XFONT "-Adobe-Utopia-Bold-R-Normal--17-120-100-100-P-93-ISO8859-2"
_DEC_DEVICE_FONTNAMES "PS=Utopia-Bold"
ENDPROPERTIES
CHARS 191
STARTCHAR space
ENCODING 32
SWIDTH 210 0
DWIDTH 3 0
BBX 0 0 0 0
BITMAP
ENDCHAR
STARTCHAR exclam
ENCODING 33
SWIDTH 278 0
DWIDTH 5 0
BBX 3 12 1 0
BITMAP
e0
e0
e0
e0
40
40
40
40
00
e0
e0
e0
ENDCHAR
STARTCHAR quotedbl
ENCODING 34
SWIDTH 473 0
DWIDTH 8 0
BBX 6 5 1 7
BITMAP
cc
cc
cc
48
48
ENDCHAR
STARTCHAR numbersign
ENCODING 35
SWIDTH 560 0
DWIDTH 9 0
BBX 9 11 0 0
BITMAP
0900
1900
1200
7f80
3200
2600
ff00
6400
4c00
4800
4800
ENDCHAR
STARTCHAR dollar
ENCODING 36
SWIDTH 560 0
DWIDTH 9 0
BBX 8 14 1 -2
BITMAP
10
3c
57
d2
f0
f8
3e
1f
13
d3
d2
7c
10
10
ENDCHAR
STARTCHAR percent
ENCODING 37
SWIDTH 887 0
DWIDTH 15 0
BBX 13 12 1 0
BITMAP
0020
7fc0
ccc0
cc80
cd00
c900
7a70
0098
0598
0998
0998
10f0
ENDCHAR
STARTCHAR ampersand
ENCODING 38
SWIDTH 748 0
DWIDTH 12 0
BBX 12 11 0 0
BITMAP
0e00
1300
3300
3230
3c30
1e30
6f20
e7e0
e3e0
71f0
3e30
ENDCHAR
STARTCHAR apostrophe
ENCODING 39
SWIDTH 252 0
DWIDTH 4 0
BBX 3 5 1 7
BITMAP
60
e0
60
40
80
ENDCHAR
STARTCHAR parenleft
ENCODING 40
SWIDTH 365 0
DWIDTH 6 0
BBX 4 14 1 -2
BITMAP
10
20
60
40
c0
c0
c0
c0
c0
c0
40
60
30
10
ENDCHAR
STARTCHAR parenright
ENCODING 41
SWIDTH 365 0
DWIDTH 6 0
BBX 4 14 1 -2
BITMAP
80
40
60
20
30
30
30
30
30
30
20
60
c0
80
ENDCHAR
STARTCHAR asterisk
ENCODING 42
SWIDTH 442 0
DWIDTH 7 0
BBX 6 7 1 5
BITMAP
30
94
dc
30
dc
94
30
ENDCHAR
STARTCHAR plus
ENCODING 43
SWIDTH 600 0
DWIDTH 10 0
BBX 8 8 1 0
BITMAP
18
18
18
ff
18
18
18
18
ENDCHAR
STARTCHAR comma
ENCODING 44
SWIDTH 280 0
DWIDTH 5 0
BBX 3 6 1 -3
BITMAP
40
e0
60
60
40
80
ENDCHAR
STARTCHAR minus
ENCODING 45
SWIDTH 600 0
DWIDTH 10 0
BBX 8 1 1 4
BITMAP
ff
ENDCHAR
STARTCHAR period
ENCODING 46
SWIDTH 280 0
DWIDTH 5 0
BBX 3 3 1 0
BITMAP
e0
e0
e0
ENDCHAR
STARTCHAR slash
ENCODING 47
SWIDTH 378 0
DWIDTH 6 0
BBX 5 12 1 0
BITMAP
18
18
10
30
30
20
20
60
60
40
c0
c0
ENDCHAR
STARTCHAR zero
ENCODING 48
SWIDTH 560 0
DWIDTH 9 0
BBX 9 11 0 0
BITMAP
3c00
7700
6300
e380
e380
e380
e380
e380
6300
7700
1c00
ENDCHAR
STARTCHAR one
ENCODING 49
SWIDTH 560 0
DWIDTH 9 0
BBX 7 11 1 0
BITMAP
18
78
38
38
38
38
38
38
38
38
fe
ENDCHAR
STARTCHAR two
ENCODING 50
SWIDTH 560 0
DWIDTH 9 0
BBX 9 11 0 0
BITMAP
1e00
7300
6380
2380
0380
0700
0c00
3800
6080
ff80
ff80
ENDCHAR
STARTCHAR three
ENCODING 51
SWIDTH 560 0
DWIDTH 9 0
BBX 9 11 0 0
BITMAP
3c00
6600
e700
0700
0600
3c00
0300
0380
6380
6300
3e00
ENDCHAR
STARTCHAR four
ENCODING 52
SWIDTH 560 0
DWIDTH 9 0
BBX 9 11 1 0
BITMAP
0e00
0e00
1e00
3e00
2e00
4e00
ce00
ff80
0e00
0e00
1f00
ENDCHAR
STARTCHAR five
ENCODING 53
SWIDTH 560 0
DWIDTH 9 0
BBX 9 11 0 0
BITMAP
7f00
7f00
4000
4000
7e00
4700
0380
0380
c380
6300
3e00
ENDCHAR
STARTCHAR six
ENCODING 54
SWIDTH 560 0
DWIDTH 9 0
BBX 9 11 0 0
BITMAP
1e00
3300
6300
e000
fe00
e300
e380
e380
6380
7300
3e00
ENDCHAR
STARTCHAR seven
ENCODING 55
SWIDTH 560 0
DWIDTH 9 0
BBX 8 11 0 0
BITMAP
7f
7f
83
82
06
04
0c
18
18
38
10
ENDCHAR
STARTCHAR eight
ENCODING 56
SWIDTH 560 0
DWIDTH 9 0
BBX 9 11 0 0
BITMAP
1e00
3300
7380
7380
3300
7f00
e380
e380
e380
6300
3e00
ENDCHAR
STARTCHAR nine
ENCODING 57
SWIDTH 560 0
DWIDTH 9 0
BBX 9 11 0 0
BITMAP
3e00
6700
e300
e380
e380
6380
3f80
0380
4300
e700
3c00
ENDCHAR
STARTCHAR colon
ENCODING 58
SWIDTH 280 0
DWIDTH 5 0
BBX 3 8 1 0
BITMAP
e0
e0
e0
00
00
e0
e0
e0
ENDCHAR
STARTCHAR semicolon
ENCODING 59
SWIDTH 280 0
DWIDTH 5 0
BBX 3 11 1 -3
BITMAP
60
e0
e0
00
00
60
e0
60
40
40
80
ENDCHAR
STARTCHAR less
ENCODING 60
SWIDTH 600 0
DWIDTH 10 0
BBX 8 9 1 -1
BITMAP
01
07
1e
78
c0
f0
1c
07
01
ENDCHAR
STARTCHAR equal
ENCODING 61
SWIDTH 600 0
DWIDTH 10 0
BBX 8 4 1 2
BITMAP
ff
00
00
ff
ENDCHAR
STARTCHAR greater
ENCODING 62
SWIDTH 600 0
DWIDTH 10 0
BBX 8 9 1 -1
BITMAP
80
e0
78
1e
03
0f
38
e0
80
ENDCHAR
STARTCHAR question
ENCODING 63
SWIDTH 456 0
DWIDTH 8 0
BBX 7 12 0 0
BITMAP
38
ee
ce
0e
18
30
70
3c
00
38
38
38
ENDCHAR
STARTCHAR at
ENCODING 64
SWIDTH 833 0
DWIDTH 14 0
BBX 12 12 1 0
BITMAP
0780
1860
3010
63d0
4cd0
cd90
d990
dba0
ddc0
4000
3040
0f80
ENDCHAR
STARTCHAR A
ENCODING 65
SWIDTH 644 0
DWIDTH 11 0
BBX 12 12 -1 0
BITMAP
0600
0700
0f00
0b00
0b80
1380
1380
1fc0
21c0
21c0
60e0
f3f0
ENDCHAR
STARTCHAR B
ENCODING 66
SWIDTH 683 0
DWIDTH 11 0
BBX 10 12 1 0
BITMAP
fe00
7300
7380
7380
7300
7e00
7380
71c0
71c0
71c0
7380
ff00
ENDCHAR
STARTCHAR C
ENCODING 67
SWIDTH 689 0
DWIDTH 11 0
BBX 10 12 1 0
BITMAP
0f80
30c0
70c0
6040
e000
e000
e000
e000
e040
7040
30c0
1f80
ENDCHAR
STARTCHAR D
ENCODING 68
SWIDTH 777 0
DWIDTH 13 0
BBX 12 12 0 0
BITMAP
7f80
38c0
38e0
3870
3870
3870
3870
3870
3870
38e0
38c0
ff00
ENDCHAR
STARTCHAR E
ENCODING 69
SWIDTH 629 0
DWIDTH 10 0
BBX 10 12 1 0
BITMAP
ff80
7180
7080
7000
7200
7e00
7200
7200
7040
7080
7180
ff80
ENDCHAR
STARTCHAR F
ENCODING 70
SWIDTH 593 0
DWIDTH 10 0
BBX 9 12 1 0
BITMAP
ff80
7180
7080
7000
7100
7100
7f00
7100
7000
7000
7000
f800
ENDCHAR
STARTCHAR G
ENCODING 71
SWIDTH 726 0
DWIDTH 12 0
BBX 11 12 1 0
BITMAP
0f80
30c0
70c0
6040
e000
e000
e000
e3e0
61c0
71c0
31c0
0f00
ENDCHAR
STARTCHAR H
ENCODING 72
SWIDTH 807 0
DWIDTH 13 0
BBX 12 12 1 0
BITMAP
f9f0
70e0
70e0
70e0
70e0
7fe0
70e0
70e0
70e0
70e0
70e0
f9f0
ENDCHAR
STARTCHAR I
ENCODING 73
SWIDTH 384 0
DWIDTH 6 0
BBX 5 12 1 0
BITMAP
f8
70
70
70
70
70
70
70
70
70
70
f8
ENDCHAR
STARTCHAR J
ENCODING 74
SWIDTH 386 0
DWIDTH 6 0
BBX 6 14 0 -2
BITMAP
7c
38
38
38
38
38
38
38
38
38
38
38
70
c0
ENDCHAR
STARTCHAR K
ENCODING 75
SWIDTH 707 0
DWIDTH 12 0
BBX 11 12 1 0
BITMAP
fbe0
7180
7300
7200
7400
7c00
7e00
7600
7700
7380
71c0
f8e0
ENDCHAR
STARTCHAR L
ENCODING 76
SWIDTH 585 0
DWIDTH 10 0
BBX 9 12 1 0
BITMAP
f800
7000
7000
7000
7000
7000
7000
7000
7080
7080
7180
ff80
ENDCHAR
STARTCHAR M
ENCODING 77
SWIDTH 918 0
DWIDTH 15 0
BBX 14 12 1 0
BITMAP
f03c
7078
7878
58b8
5cb8
5cb8
4d38
4f38
4f38
4638
4638
f27c
ENDCHAR
STARTCHAR N
ENCODING 78
SWIDTH 739 0
DWIDTH 12 0
BBX 11 12 1 0
BITMAP
f1e0
7840
7840
5c40
5e40
4e40
4740
47c0
43c0
41c0
41c0
f0c0
ENDCHAR
STARTCHAR O
ENCODING 79
SWIDTH 768 0
DWIDTH 13 0
BBX 11 12 1 0
BITMAP
1f00
3180
71c0
e0e0
e0e0
e0e0
e0e0
e0e0
e0e0
60c0
3180
1f00
ENDCHAR
STARTCHAR P
ENCODING 80
SWIDTH 650 0
DWIDTH 11 0
BBX 9 12 1 0
BITMAP
fe00
7300
7380
7380
7380
7380
7700
7e00
7000
7000
7000
f800
ENDCHAR
STARTCHAR Q
ENCODING 81
SWIDTH 768 0
DWIDTH 13 0
BBX 11 15 1 -3
BITMAP
1f00
3180
71c0
e0e0
e0e0
e0e0
e0e0
e0e0
e0e0
60c0
3180
1f00
0700
0380
01c0
ENDCHAR
STARTCHAR R
ENCODING 82
SWIDTH 684 0
DWIDTH 11 0
BBX 10 12 1 0
BITMAP
fe00
7300
7380
7380
7380
7300
7c00
7700
7300
7380
7380
f9c0
ENDCHAR
STARTCHAR S
ENCODING 83
SWIDTH 561 0
DWIDTH 9 0
BBX 8 12 1 0
BITMAP
3c
66
e2
e2
f0
7c
1e
0f
87
c7
e6
3c
ENDCHAR
STARTCHAR T
ENCODING 84
SWIDTH 624 0
DWIDTH 10 0
BBX 11 12 0 0
BITMAP
ffe0
ce60
8e20
0e00
0e00
0e00
0e00
0e00
0e00
0e00
0e00
3f80
ENDCHAR
STARTCHAR U
ENCODING 85
SWIDTH 786 0
DWIDTH 13 0
BBX 12 12 1 0
BITMAP
f9f0
70e0
70e0
70e0
70e0
70e0
70e0
70e0
70e0
70e0
39c0
1f00
ENDCHAR
STARTCHAR V
ENCODING 86
SWIDTH 645 0
DWIDTH 11 0
BBX 12 12 0 0
BITMAP
f8f0
7060
3040
3840
3880
1880
1c80
1d00
0d00
0f00
0e00
0600
ENDCHAR
STARTCHAR W
ENCODING 87
SWIDTH 933 0
DWIDTH 16 0
BBX 16 12 0 0
BITMAP
f80f
71c6
71c4
31c4
31c4
3ac8
1ae8
1a68
1a68
1e70
0c70
0c30
ENDCHAR
STARTCHAR X
ENCODING 88
SWIDTH 634 0
DWIDTH 11 0
BBX 11 12 0 0
BITMAP
f9c0
7080
3900
3900
1e00
0e00
0e00
1f00
1300
3380
61c0
f3e0
ENDCHAR
STARTCHAR Y
ENCODING 89
SWIDTH 617 0
DWIDTH 10 0
BBX 11 12 0 0
BITMAP
f9e0
70c0
3080
3980
1900
1f00
0e00
0e00
0e00
0e00
0e00
1f00
ENDCHAR
STARTCHAR Z
ENCODING 90
SWIDTH 614 0
DWIDTH 10 0
BBX 11 12 0 0
BITMAP
7fc0
61c0
4380
0780
0700
0e00
1e00
1c00
3820
7840
f040
ffc0
ENDCHAR
STARTCHAR bracketleft
ENCODING 91
SWIDTH 335 0
DWIDTH 6 0
BBX 3 14 2 -2
BITMAP
e0
c0
c0
c0
c0
c0
c0
c0
c0
c0
c0
c0
c0
e0
ENDCHAR
STARTCHAR backslash
ENCODING 92
SWIDTH 379 0
DWIDTH 6 0
BBX 5 12 1 0
BITMAP
c0
c0
40
60
60
20
20
30
30
10
18
18
ENDCHAR
STARTCHAR bracketright
ENCODING 93
SWIDTH 335 0
DWIDTH 6 0
BBX 3 14 1 -2
BITMAP
e0
60
60
60
60
60
60
60
60
60
60
60
60
e0
ENDCHAR
STARTCHAR asciicircum
ENCODING 94
SWIDTH 600 0
DWIDTH 10 0
BBX 8 8 1 3
BITMAP
18
18
3c
24
66
66
42
c3
ENDCHAR
STARTCHAR underscore
ENCODING 95
SWIDTH 500 0
DWIDTH 8 0
BBX 8 1 0 -2
BITMAP
ff
ENDCHAR
STARTCHAR grave
ENCODING 96
SWIDTH 430 0
DWIDTH 7 0
BBX 5 4 0 8
BITMAP
c0
e0
30
08
ENDCHAR
STARTCHAR a
ENCODING 97
SWIDTH 544 0
DWIDTH 9 0
BBX 9 8 0 0
BITMAP
3e00
6700
e700
0f00
7700
e700
e700
7f80
ENDCHAR
STARTCHAR b
ENCODING 98
SWIDTH 605 0
DWIDTH 10 0
BBX 10 12 0 0
BITMAP
3000
f000
7000
7000
7f00
7180
71c0
71c0
71c0
71c0
7180
5f00
ENDCHAR
STARTCHAR c
ENCODING 99
SWIDTH 494 0
DWIDTH 8 0
BBX 8 8 0 0
BITMAP
3c
67
e2
e0
e0
e0
73
3c
ENDCHAR
STARTCHAR d
ENCODING 100
SWIDTH 605 0
DWIDTH 10 0
BBX 10 12 0 0
BITMAP
0180
0780
0380
0380
1f80
7380
6380
e380
e380
e380
7380
3fc0
ENDCHAR
STARTCHAR e
ENCODING 101
SWIDTH 519 0
DWIDTH 9 0
BBX 9 8 0 0
BITMAP
3e00
6300
e380
ff80
e000
e000
7180
3e00
ENDCHAR
STARTCHAR f
ENCODING 102
SWIDTH 342 0
DWIDTH 6 0
BBX 7 12 0 0
BITMAP
1c
2e
64
70
fc
70
70
70
70
70
70
f8
ENDCHAR
STARTCHAR g
ENCODING 103
SWIDTH 533 0
DWIDTH 9 0
BBX 9 12 0 -4
BITMAP
3d80
6600
e700
6700
3c00
6000
7e00
3f80
6180
e180
6100
1e00
ENDCHAR
STARTCHAR h
ENCODING 104
SWIDTH 631 0
DWIDTH 11 0
BBX 11 12 0 0
BITMAP
3000
f000
7000
7000
7f80
71c0
71c0
71c0
71c0
71c0
71c0
fbe0
ENDCHAR
STARTCHAR i
ENCODING 105
SWIDTH 316 0
DWIDTH 5 0
BBX 5 12 0 0
BITMAP
70
70
70
00
30
f0
70
70
70
70
70
f8
ENDCHAR
STARTCHAR j
ENCODING 106
SWIDTH 316 0
DWIDTH 5 0
BBX 6 16 -1 -4
BITMAP
18
1c
18
00
18
78
38
38
38
38
38
38
38
38
70
c0
ENDCHAR
STARTCHAR k
ENCODING 107
SWIDTH 582 0
DWIDTH 10 0
BBX 10 12 0 0
BITMAP
3000
f000
7000
7000
73c0
7700
7c00
7c00
7e00
7700
7380
f9c0
ENDCHAR
STARTCHAR l
ENCODING 108
SWIDTH 309 0
DWIDTH 5 0
BBX 5 12 0 0
BITMAP
30
f0
70
70
70
70
70
70
70
70
70
f8
ENDCHAR
STARTCHAR m
ENCODING 109
SWIDTH 948 0
DWIDTH 16 0
BBX 15 8 0 0
BITMAP
3f78
f39c
739c
739c
739c
739c
739c
fbde
ENDCHAR
STARTCHAR n
ENCODING 110
SWIDTH 638 0
DWIDTH 11 0
BBX 11 8 0 0
BITMAP
3f80
f1c0
71c0
71c0
71c0
71c0
71c0
fbe0
ENDCHAR
STARTCHAR o
ENCODING 111
SWIDTH 585 0
DWIDTH 10 0
BBX 9 8 0 0
BITMAP
3e00
6300
e380
e380
e380
e380
6300
3e00
ENDCHAR
STARTCHAR p
ENCODING 112
SWIDTH 615 0
DWIDTH 10 0
BBX 10 12 0 -4
BITMAP
3f00
f180
71c0
71c0
71c0
71c0
7380
7f00
7000
7000
7000
f800
ENDCHAR
STARTCHAR q
ENCODING 113
SWIDTH 597 0
DWIDTH 10 0
BBX 10 12 0 -4
BITMAP
1f80
7380
6380
e380
e380
e380
7380
3f80
0380
0380
0380
07c0
ENDCHAR
STARTCHAR r
ENCODING 114
SWIDTH 440 0
DWIDTH 7 0
BBX 7 8 0 0
BITMAP
36
fe
76
70
70
70
70
f8
ENDCHAR
STARTCHAR s
ENCODING 115
SWIDTH 446 0
DWIDTH 7 0
BBX 7 8 0 0
BITMAP
3c
66
e2
f8
7e
0e
cc
78
ENDCHAR
STARTCHAR t
ENCODING 116
SWIDTH 370 0
DWIDTH 6 0
BBX 6 10 0 0
BITMAP
30
30
fc
70
70
70
70
70
70
3c
ENDCHAR
STARTCHAR u
ENCODING 117
SWIDTH 629 0
DWIDTH 10 0
BBX 10 8 0 0
BITMAP
3180
f780
7380
7380
7380
7380
7380
3fc0
ENDCHAR
STARTCHAR v
ENCODING 118
SWIDTH 520 0
DWIDTH 9 0
BBX 9 8 0 0
BITMAP
f380
6100
7200
3200
3a00
1c00
1c00
1800
ENDCHAR
STARTCHAR w
ENCODING 119
SWIDTH 774 0
DWIDTH 13 0
BBX 14 8 0 0
BITMAP
f9bc
7398
3390
33d0
3de0
1ce0
1ce0
18e0
ENDCHAR
STARTCHAR x
ENCODING 120
SWIDTH 522 0
DWIDTH 9 0
BBX 9 8 0 0
BITMAP
f700
7600
3400
1800
1c00
3e00
6700
f780
ENDCHAR
STARTCHAR y
ENCODING 121
SWIDTH 524 0
DWIDTH 9 0
BBX 9 12 0 -4
BITMAP
fb80
7100
3100
3a00
1a00
1c00
1c00
0c00
0800
2800
7000
6000
ENDCHAR
STARTCHAR z
ENCODING 122
SWIDTH 483 0
DWIDTH 8 0
BBX 9 8 0 0
BITMAP
7f80
4700
4e00
1c00
3c00
3880
7100
ff00
ENDCHAR
STARTCHAR braceleft
ENCODING 123
SWIDTH 365 0
DWIDTH 6 0
BBX 4 14 1 -2
BITMAP
30
60
60
20
30
30
e0
20
30
30
60
60
60
30
ENDCHAR
STARTCHAR bar
ENCODING 124
SWIDTH 284 0
DWIDTH 5 0
BBX 2 12 1 0
BITMAP
c0
c0
c0
c0
c0
c0
c0
c0
c0
c0
c0
c0
ENDCHAR
STARTCHAR braceright
ENCODING 125
SWIDTH 365 0
DWIDTH 6 0
BBX 4 14 1 -2
BITMAP
c0
60
60
60
60
60
30
20
60
60
60
60
60
c0
ENDCHAR
STARTCHAR asciitilde
ENCODING 126
SWIDTH 600 0
DWIDTH 10 0
BBX 8 3 1 3
BITMAP
21
7e
84
ENDCHAR
STARTCHAR nobreakspace
ENCODING 160
SWIDTH 210 0
DWIDTH 3 0
BBX 0 0 0 0
BITMAP
ENDCHAR
STARTCHAR Aogonek
ENCODING 161
SWIDTH 644 0
DWIDTH 11 0
BBX 12 16 -1 -4
BITMAP
0600
0700
0f00
0b00
0b80
1380
1380
1fc0
21c0
21c0
60e0
f3f0
0600
0400
0c00
0700
ENDCHAR
STARTCHAR breve
ENCODING 162
SWIDTH 430 0
DWIDTH 7 0
BBX 5 2 1 9
BITMAP
88
70
ENDCHAR
STARTCHAR Lstroke
ENCODING 163
SWIDTH 591 0
DWIDTH 10 0
BBX 10 12 0 0
BITMAP
7c00
3800
3800
3900
3e00
3800
3800
7800
b840
3840
38c0
7fc0
ENDCHAR
STARTCHAR currency
ENCODING 164
SWIDTH 560 0
DWIDTH 9 0
BBX 8 7 1 2
BITMAP
ff
66
c3
c3
c3
66
ff
ENDCHAR
STARTCHAR Lcaron
ENCODING 165
SWIDTH 585 0
DWIDTH 10 0
BBX 9 13 1 0
BITMAP
0180
fb80
7180
7100
7200
7000
7000
7000
7000
7080
7080
7180
ff80
ENDCHAR
STARTCHAR Sacute
ENCODING 166
SWIDTH 561 0
DWIDTH 9 0
BBX 8 17 1 0
BITMAP
03
07
0c
10
00
3c
66
e2
e2
f0
7c
1e
0f
87
c7
e6
3c
ENDCHAR
STARTCHAR section
ENCODING 167
SWIDTH 566 0
DWIDTH 9 0
BBX 8 14 1 -2
BITMAP
1c
26
60
70
bc
9e
8f
e3
71
3d
0e
46
64
38
ENDCHAR
STARTCHAR diaeresis
ENCODING 168
SWIDTH 430 0
DWIDTH 7 0
BBX 7 3 0 9
BITMAP
44
ee
44
ENDCHAR
STARTCHAR Scaron
ENCODING 169
SWIDTH 561 0
DWIDTH 9 0
BBX 8 17 1 0
BITMAP
42
24
18
18
00
3c
66
e2
e2
f0
7c
1e
0f
87
c7
e6
3c
ENDCHAR
STARTCHAR Scedilla
ENCODING 170
SWIDTH 561 0
DWIDTH 9 0
BBX 8 17 1 -5
BITMAP
3c
66
e2
e2
f0
7c
1e
0f
87
c7
e6
3c
10
20
38
18
30
ENDCHAR
STARTCHAR Tcaron
ENCODING 171
SWIDTH 624 0
DWIDTH 10 0
BBX 11 17 0 0
BITMAP
1080
0900
0600
0600
0000
ffe0
ce60
8e20
0e00
0e00
0e00
0e00
0e00
0e00
0e00
0e00
3f80
ENDCHAR
STARTCHAR Zacute
ENCODING 172
SWIDTH 614 0
DWIDTH 10 0
BBX 11 17 0 0
BITMAP
00c0
01c0
0300
0400
0000
7fc0
61c0
4380
0780
0700
0e00
1e00
1c00
3820
7840
f040
ffc0
ENDCHAR
STARTCHAR hyphen
ENCODING 173
SWIDTH 392 0
DWIDTH 7 0
BBX 4 2 1 3
BITMAP
f0
f0
ENDCHAR
STARTCHAR Zcaron
ENCODING 174
SWIDTH 614 0
DWIDTH 10 0
BBX 11 17 0 0
BITMAP
1080
0900
0600
0600
0000
7fc0
61c0
4380
0780
0700
0e00
1e00
1c00
3820
7840
f040
ffc0
ENDCHAR
STARTCHAR Zabovedot
ENCODING 175
SWIDTH 614 0
DWIDTH 10 0
BBX 11 16 0 0
BITMAP
0400
0e00
0400
0000
7fc0
61c0
4380
0780
0700
0e00
1e00
1c00
3820
7840
f040
ffc0
ENDCHAR
STARTCHAR degree
ENCODING 176
SWIDTH 396 0
DWIDTH 7 0
BBX 5 5 1 6
BITMAP
70
88
88
88
70
ENDCHAR
STARTCHAR aogonek
ENCODING 177
SWIDTH 544 0
DWIDTH 9 0
BBX 9 12 0 -4
BITMAP
3e00
6700
e700
0f00
7700
e700
e700
7f80
0c00
0800
1800
0e00
ENDCHAR
STARTCHAR ogonek
ENCODING 178
SWIDTH 430 0
DWIDTH 7 0
BBX 4 4 2 -4
BITMAP
60
40
c0
70
ENDCHAR
STARTCHAR lstroke
ENCODING 179
SWIDTH 321 0
DWIDTH 5 0
BBX 5 12 0 0
BITMAP
30
f0
70
70
78
70
f0
f0
70
70
70
f8
ENDCHAR
STARTCHAR acute
ENCODING 180
SWIDTH 430 0
DWIDTH 7 0
BBX 5 4 2 8
BITMAP
18
38
60
80
ENDCHAR
STARTCHAR lcaron
ENCODING 181
SWIDTH 480 0
DWIDTH 8 0
BBX 8 13 0 0
BITMAP
03
37
f3
72
74
70
70
70
70
70
70
70
f8
ENDCHAR
STARTCHAR sacute
ENCODING 182
SWIDTH 446 0
DWIDTH 7 0
BBX 8 13 0 0
BITMAP
03
07
0c
10
00
3c
66
e2
f8
7e
0e
cc
78
ENDCHAR
STARTCHAR caron
ENCODING 183
SWIDTH 430 0
DWIDTH 7 0
BBX 6 4 1 9
BITMAP
84
48
30
30
ENDCHAR
STARTCHAR cedilla
ENCODING 184
SWIDTH 430 0
DWIDTH 7 0
BBX 3 5 3 -4
BITMAP
40
80
e0
60
c0
ENDCHAR
STARTCHAR scaron
ENCODING 185
SWIDTH 446 0
DWIDTH 7 0
BBX 7 13 0 0
BITMAP
42
24
18
18
00
3c
66
e2
f8
7e
0e
cc
78
ENDCHAR
STARTCHAR scedilla
ENCODING 186
SWIDTH 446 0
DWIDTH 7 0
BBX 7 13 0 -5
BITMAP
3c
66
e2
f8
7e
0e
cc
78
10
20
38
18
30
ENDCHAR
STARTCHAR tcaron
ENCODING 187
SWIDTH 480 0
DWIDTH 8 0
BBX 8 14 0 0
BITMAP
03
07
03
02
34
30
fc
70
70
70
70
70
70
3c
ENDCHAR
STARTCHAR zacute
ENCODING 188
SWIDTH 483 0
DWIDTH 8 0
BBX 9 13 0 0
BITMAP
0180
0380
0600
0800
0000
7f80
4700
4e00
1c00
3c00
3880
7100
ff00
ENDCHAR
STARTCHAR doubleacute
ENCODING 189
SWIDTH 430 0
DWIDTH 7 0
BBX 6 4 1 9
BITMAP
6c
4c
c8
90
ENDCHAR
STARTCHAR zcaron
ENCODING 190
SWIDTH 483 0
DWIDTH 8 0
BBX 9 13 0 0
BITMAP
2100
1200
0c00
0c00
0000
7f80
4700
4e00
1c00
3c00
3880
7100
ff00
ENDCHAR
STARTCHAR zabovedot
ENCODING 191
SWIDTH 483 0
DWIDTH 8 0
BBX 9 12 0 0
BITMAP
0800
1c00
0800
0000
7f80
4700
4e00
1c00
3c00
3880
7100
ff00
ENDCHAR
STARTCHAR Racute
ENCODING 192
SWIDTH 684 0
DWIDTH 11 0
BBX 10 17 1 0
BITMAP
0300
0700
0c00
1000
0000
fe00
7300
7380
7380
7380
7300
7c00
7700
7300
7380
7380
f9c0
ENDCHAR
STARTCHAR Aacute
ENCODING 193
SWIDTH 644 0
DWIDTH 11 0
BBX 12 15 -1 0
BITMAP
0180
0f00
0000
0600
0700
0f00
0b00
0b80
1380
1380
1fc0
21c0
21c0
60e0
f3f0
ENDCHAR
STARTCHAR Acircumflex
ENCODING 194
SWIDTH 644 0
DWIDTH 11 0
BBX 12 15 -1 0
BITMAP
0600
0f00
1080
0600
0700
0f00
0b00
0b80
1380
1380
1fc0
21c0
21c0
60e0
f3f0
ENDCHAR
STARTCHAR Abreve
ENCODING 195
SWIDTH 644 0
DWIDTH 11 0
BBX 12 15 -1 0
BITMAP
0880
0700
0000
0600
0700
0f00
0b00
0b80
1380
1380
1fc0
21c0
21c0
60e0
f3f0
ENDCHAR
STARTCHAR Adiaeresis
ENCODING 196
SWIDTH 644 0
DWIDTH 11 0
BBX 12 15 -1 0
BITMAP
0880
1dc0
0880
0200
0700
0f00
0f00
1b80
1380
1180
3fc0
21c0
20c0
60e0
f1f0
ENDCHAR
STARTCHAR Lacute
ENCODING 197
SWIDTH 585 0
DWIDTH 10 0
BBX 9 17 1 0
BITMAP
0600
0e00
1800
2000
0000
f800
7000
7000
7000
7000
7000
7000
7000
7080
7080
7180
ff80
ENDCHAR
STARTCHAR Cacute
ENCODING 198
SWIDTH 689 0
DWIDTH 11 0
BBX 10 17 1 0
BITMAP
00c0
01c0
0300
0400
0000
0f80
30c0
70c0
6040
e000
e000
e000
e000
e040
7040
30c0
1f80
ENDCHAR
STARTCHAR Ccedilla
ENCODING 199
SWIDTH 689 0
DWIDTH 11 0
BBX 10 16 1 -4
BITMAP
1f80
31c0
70c0
6040
e000
e000
e000
e000
e040
70c0
31c0
1f00
0800
0e00
0600
0c00
ENDCHAR
STARTCHAR Ccaron
ENCODING 200
SWIDTH 689 0
DWIDTH 11 0
BBX 10 17 1 0
BITMAP
1080
0900
0600
0600
0000
0f80
30c0
70c0
6040
e000
e000
e000
e000
e040
7040
30c0
1f80
ENDCHAR
STARTCHAR Eacute
ENCODING 201
SWIDTH 629 0
DWIDTH 10 0
BBX 10 15 1 0
BITMAP
0700
1e00
0000
ff80
7180
7080
7000
7200
7e00
7200
7200
7040
7080
7180
ff80
ENDCHAR
STARTCHAR Eogonek
ENCODING 202
SWIDTH 629 0
DWIDTH 10 0
BBX 10 16 1 -4
BITMAP
ff80
7180
7080
7000
7200
7e00
7200
7200
7040
7080
7180
ff80
0c00
0800
1800
0e00
ENDCHAR
STARTCHAR Ediaeresis
ENCODING 203
SWIDTH 629 0
DWIDTH 10 0
BBX 10 15 1 0
BITMAP
2200
7700
0000
ff80
7180
7080
7000
7200
7e00
7200
7200
7040
7080
7180
ff80
ENDCHAR
STARTCHAR Ecaron
ENCODING 204
SWIDTH 629 0
DWIDTH 10 0
BBX 10 17 1 0
BITMAP
2100
1200
0c00
0c00
0000
ff80
7180
7080
7000
7200
7e00
7200
7200
7040
7080
7180
ff80
ENDCHAR
STARTCHAR Iacute
ENCODING 205
SWIDTH 384 0
DWIDTH 6 0
BBX 6 15 1 0
BITMAP
1c
70
00
f8
70
70
70
70
70
70
70
70
70
70
f8
ENDCHAR
STARTCHAR Icircumflex
ENCODING 206
SWIDTH 384 0
DWIDTH 6 0
BBX 7 15 0 0
BITMAP
10
fe
00
7c
38
38
38
38
38
38
38
38
38
38
7c
ENDCHAR
STARTCHAR Dcaron
ENCODING 207
SWIDTH 777 0
DWIDTH 13 0
BBX 12 17 0 0
BITMAP
1080
0900
0600
0600
0000
7f80
38c0
38e0
3870
3870
3870
3870
3870
3870
38e0
38c0
ff00
ENDCHAR
STARTCHAR Dstroke
ENCODING 208
SWIDTH 783 0
DWIDTH 13 0
BBX 11 12 1 0
BITMAP
ff00
7180
71c0
70e0
70e0
fce0
70e0
70e0
70e0
71c0
7180
fe00
ENDCHAR
STARTCHAR Nacute
ENCODING 209
SWIDTH 739 0
DWIDTH 12 0
BBX 11 17 1 0
BITMAP
00c0
01c0
0300
0400
0000
f1e0
7840
7840
5c40
5e40
4e40
4740
47c0
43c0
41c0
41c0
f0c0
ENDCHAR
STARTCHAR Ncaron
ENCODING 210
SWIDTH 739 0
DWIDTH 12 0
BBX 11 17 1 0
BITMAP
1080
0900
0600
0600
0000
f1e0
7840
7840
5c40
5e40
4e40
4740
47c0
43c0
41c0
41c0
f0c0
ENDCHAR
STARTCHAR Oacute
ENCODING 211
SWIDTH 768 0
DWIDTH 13 0
BBX 11 15 1 0
BITMAP
0300
0f00
0000
1f00
3180
71c0
e0e0
e0e0
e0e0
e0e0
e0e0
e0e0
60c0
3180
1f00
ENDCHAR
STARTCHAR Ocircumflex
ENCODING 212
SWIDTH 768 0
DWIDTH 13 0
BBX 11 15 1 0
BITMAP
0400
1f00
0000
1f00
3180
71c0
e0e0
e0e0
e0e0
e0e0
e0e0
e0e0
60c0
3180
1f00
ENDCHAR
STARTCHAR Odoubleacute
ENCODING 213
SWIDTH 768 0
DWIDTH 13 0
BBX 11 17 1 0
BITMAP
06c0
04c0
0c80
0900
0000
1f00
3180
71c0
e0e0
e0e0
e0e0
e0e0
e0e0
e0e0
60c0
3180
1f00
ENDCHAR
STARTCHAR Odiaeresis
ENCODING 214
SWIDTH 768 0
DWIDTH 13 0
BBX 11 15 1 0
BITMAP
1100
3b80
0000
1f00
3180
71c0
e0e0
e0e0
e0e0
e0e0
e0e0
e0e0
60c0
3180
1f00
ENDCHAR
STARTCHAR multiply
ENCODING 215
SWIDTH 600 0
DWIDTH 10 0
BBX 7 8 1 0
BITMAP
82
c6
6c
38
38
6c
c6
82
ENDCHAR
STARTCHAR Rcaron
ENCODING 216
SWIDTH 684 0
DWIDTH 11 0
BBX 10 17 1 0
BITMAP
4200
2400
1800
1800
0000
fe00
7300
7380
7380
7380
7300
7c00
7700
7300
7380
7380
f9c0
ENDCHAR
STARTCHAR Uring
ENCODING 217
SWIDTH 786 0
DWIDTH 13 0
BBX 12 17 1 0
BITMAP
0600
0900
0900
0600
0000
f9f0
70e0
70e0
70e0
70e0
70e0
70e0
70e0
70e0
70e0
39c0
1f00
ENDCHAR
STARTCHAR Uacute
ENCODING 218
SWIDTH 786 0
DWIDTH 13 0
BBX 12 15 1 0
BITMAP
0180
0f00
0000
f9f0
70e0
70e0
70e0
70e0
70e0
70e0
70e0
70e0
70e0
39c0
1f00
ENDCHAR
STARTCHAR Udoubleacute
ENCODING 219
SWIDTH 786 0
DWIDTH 13 0
BBX 12 17 1 0
BITMAP
06c0
04c0
0c80
0900
0000
f9f0
70e0
70e0
70e0
70e0
70e0
70e0
70e0
70e0
70e0
39c0
1f00
ENDCHAR
STARTCHAR Udiaeresis
ENCODING 220
SWIDTH 786 0
DWIDTH 13 0
BBX 12 15 1 0
BITMAP
1100
3b80
0000
f9f0
70e0
70e0
70e0
70e0
70e0
70e0
70e0
70e0
70e0
39c0
1f00
ENDCHAR
STARTCHAR Yacute
ENCODING 221
SWIDTH 617 0
DWIDTH 10 0
BBX 11 15 0 0
BITMAP
0380
0f00
0000
f9e0
70c0
3080
3980
1900
1f00
0e00
0e00
0e00
0e00
0e00
1f00
ENDCHAR
STARTCHAR Tcedilla
ENCODING 222
SWIDTH 624 0
DWIDTH 10 0
BBX 11 17 0 -5
BITMAP
ffe0
ce60
8e20
0e00
0e00
0e00
0e00
0e00
0e00
0e00
0e00
3f80
0400
0800
0e00
0600
0c00
ENDCHAR
STARTCHAR ssharp
ENCODING 223
SWIDTH 662 0
DWIDTH 11 0
BBX 11 12 0 0
BITMAP
1f00
3180
71c0
7180
7300
7700
7780
73c0
70e0
7060
7660
f3c0
ENDCHAR
STARTCHAR racute
ENCODING 224
SWIDTH 440 0
DWIDTH 7 0
BBX 8 13 0 0
BITMAP
03
07
0c
10
00
36
fe
76
70
70
70
70
f8
ENDCHAR
STARTCHAR aacute
ENCODING 225
SWIDTH 544 0
DWIDTH 9 0
BBX 9 12 0 0
BITMAP
0200
0700
1c00
0000
3e00
6700
e700
0f00
7700
e700
e700
7f80
ENDCHAR
STARTCHAR acircumflex
ENCODING 226
SWIDTH 544 0
DWIDTH 9 0
BBX 9 12 0 0
BITMAP
0800
1c00
6700
0000
3e00
6700
e700
0f00
7700
e700
e700
7f80
ENDCHAR
STARTCHAR abreve
ENCODING 227
SWIDTH 544 0
DWIDTH 9 0
BBX 9 11 0 0
BITMAP
2200
1c00
0000
3e00
6700
e700
0f00
7700
e700
e700
7f80
ENDCHAR
STARTCHAR adiaeresis
ENCODING 228
SWIDTH 544 0
DWIDTH 9 0
BBX 9 12 0 0
BITMAP
2200
7700
2200
0000
3e00
6700
e700
0f00
7700
e700
e700
7f80
ENDCHAR
STARTCHAR lacute
ENCODING 229
SWIDTH 309 0
DWIDTH 5 0
BBX 6 17 0 0
BITMAP
0c
1c
30
40
00
30
f0
70
70
70
70
70
70
70
70
70
f8
ENDCHAR
STARTCHAR cacute
ENCODING 230
SWIDTH 494 0
DWIDTH 8 0
BBX 9 13 0 0
BITMAP
0180
0380
0600
0800
0000
3c00
6700
e200
e000
e000
e000
7300
3c00
ENDCHAR
STARTCHAR ccedilla
ENCODING 231
SWIDTH 494 0
DWIDTH 8 0
BBX 8 12 0 -4
BITMAP
3c
67
e2
e0
e0
e0
73
3c
10
1c
0c
38
ENDCHAR
STARTCHAR ccaron
ENCODING 232
SWIDTH 494 0
DWIDTH 8 0
BBX 8 13 0 0
BITMAP
21
12
0c
0c
00
3c
67
e2
e0
e0
e0
73
3c
ENDCHAR
STARTCHAR eacute
ENCODING 233
SWIDTH 519 0
DWIDTH 9 0
BBX 9 12 0 0
BITMAP
0100
0700
1c00
0000
3e00
6300
e380
ff80
e000
e000
7180
3e00
ENDCHAR
STARTCHAR eogonek
ENCODING 234
SWIDTH 519 0
DWIDTH 9 0
BBX 9 12 0 -4
BITMAP
3e00
6300
e380
ff80
e000
e000
7180
3e00
0c00
0800
1800
0e00
ENDCHAR
STARTCHAR ediaeresis
ENCODING 235
SWIDTH 519 0
DWIDTH 9 0
BBX 9 12 0 0
BITMAP
2200
7700
2200
0000
3e00
6300
e380
ff80
e000
e000
7180
3e00
ENDCHAR
STARTCHAR ecaron
ENCODING 236
SWIDTH 519 0
DWIDTH 9 0
BBX 9 13 0 0
BITMAP
2100
1200
0c00
0c00
0000
3e00
6300
e380
ff80
e000
e000
7180
3e00
ENDCHAR
STARTCHAR iacute
ENCODING 237
SWIDTH 316 0
DWIDTH 5 0
BBX 5 12 0 0
BITMAP
08
38
60
00
30
f0
70
70
70
70
70
f8
ENDCHAR
STARTCHAR icircumflex
ENCODING 238
SWIDTH 316 0
DWIDTH 5 0
BBX 7 12 -1 0
BITMAP
10
38
4c
82
18
78
38
38
38
38
38
7c
ENDCHAR
STARTCHAR dcaron
ENCODING 239
SWIDTH 780 0
DWIDTH 13 0
BBX 13 13 0 0
BITMAP
0018
01b8
0798
0390
03a0
1f80
7380
6380
e380
e380
e380
7380
3fc0
ENDCHAR
STARTCHAR dstroke
ENCODING 240
SWIDTH 720 0
DWIDTH 12 0
BBX 12 12 0 0
BITMAP
0180
0380
1ff0
0380
1f80
7380
6380
e380
e380
e380
7380
3fc0
ENDCHAR
STARTCHAR nacute
ENCODING 241
SWIDTH 638 0
DWIDTH 11 0
BBX 11 13 0 0
BITMAP
0180
0380
0600
0800
0000
3f80
f1c0
71c0
71c0
71c0
71c0
71c0
fbe0
ENDCHAR
STARTCHAR ncaron
ENCODING 242
SWIDTH 638 0
DWIDTH 11 0
BBX 11 13 0 0
BITMAP
2100
1200
0c00
0c00
0000
3f80
f1c0
71c0
71c0
71c0
71c0
71c0
fbe0
ENDCHAR
STARTCHAR oacute
ENCODING 243
SWIDTH 585 0
DWIDTH 10 0
BBX 9 12 0 0
BITMAP
0200
0700
1c00
0000
3e00
6300
e380
e380
e380
e380
6300
3e00
ENDCHAR
STARTCHAR ocircumflex
ENCODING 244
SWIDTH 585 0
DWIDTH 10 0
BBX 9 12 0 0
BITMAP
0800
1c00
7700
0000
3e00
6300
e380
e380
e380
e380
6300
3e00
ENDCHAR
STARTCHAR odoubleacute
ENCODING 245
SWIDTH 585 0
DWIDTH 10 0
BBX 9 13 0 0
BITMAP
0d80
0980
1900
1200
0000
3e00
6300
e380
e380
e380
e380
6300
3e00
ENDCHAR
STARTCHAR odiaeresis
ENCODING 246
SWIDTH 585 0
DWIDTH 10 0
BBX 9 12 0 0
BITMAP
2200
7700
2200
0000
3e00
6300
e380
e380
e380
e380
6300
3e00
ENDCHAR
STARTCHAR division
ENCODING 247
SWIDTH 600 0
DWIDTH 10 0
BBX 9 9 1 0
BITMAP
0800
1c00
0800
0000
ff80
0000
0800
1c00
0800
ENDCHAR
STARTCHAR rcaron
ENCODING 248
SWIDTH 440 0
DWIDTH 7 0
BBX 7 13 0 0
BITMAP
42
24
18
18
00
36
fe
76
70
70
70
70
f8
ENDCHAR
STARTCHAR uring
ENCODING 249
SWIDTH 629 0
DWIDTH 10 0
BBX 10 13 0 0
BITMAP
0c00
1200
1200
0c00
0000
3180
f780
7380
7380
7380
7380
7380
3fc0
ENDCHAR
STARTCHAR uacute
ENCODING 250
SWIDTH 629 0
DWIDTH 10 0
BBX 10 12 0 0
BITMAP
0100
0300
0e00
0000
3180
f780
7380
7380
7380
7380
7380
3fc0
ENDCHAR
STARTCHAR udoubleacute
ENCODING 251
SWIDTH 629 0
DWIDTH 10 0
BBX 10 13 0 0
BITMAP
0d80
0980
1900
1200
0000
3180
f780
7380
7380
7380
7380
7380
3fc0
ENDCHAR
STARTCHAR udiaeresis
ENCODING 252
SWIDTH 629 0
DWIDTH 10 0
BBX 10 12 0 0
BITMAP
1100
3b80
1100
0000
3180
f780
7380
7380
7380
7380
7380
3fc0
ENDCHAR
STARTCHAR yacute
ENCODING 253
SWIDTH 524 0
DWIDTH 9 0
BBX 9 16 0 -4
BITMAP
0300
0700
0c00
0000
fb80
7100
3100
3a00
1a00
1c00
1c00
0c00
0800
2800
7000
6000
ENDCHAR
STARTCHAR tcedilla
ENCODING 254
SWIDTH 370 0
DWIDTH 6 0
BBX 6 15 0 -5
BITMAP
30
30
fc
70
70
70
70
70
70
3c
20
40
70
30
60
ENDCHAR
STARTCHAR abovedot
ENCODING 255
SWIDTH 430 0
DWIDTH 7 0
BBX 3 3 2 9
BITMAP
40
e0
40
ENDCHAR
ENDFONT
